<svg width="112" height="86" viewBox="0 0 112 86" fill="none" xmlns="http://www.w3.org/2000/svg">
<g clip-path="url(#clip0_3138_221)">
<g filter="url(#filter0_f_3138_221)">
<path d="M6 23.4219H105" stroke="black" stroke-opacity="0.55" style="stroke:black;stroke-opacity:0.55;" stroke-width="4"/>
</g>
<path d="M96.9363 16.8174H13.8973C12.3133 16.8174 8.13556 18.2449 7.10156 24.8999H103.723C102.689 18.2339 98.5313 16.8174 96.9473 16.8174H96.9363Z" fill="#D4D4D4" style="fill:#D4D4D4;fill:color(display-p3 0.8301 0.8301 0.8301);fill-opacity:1;"/>
<g filter="url(#filter1_d_3138_221)">
<path d="M81.4824 74.7654L57.3044 82.6414C56.0614 83.0484 54.7744 83.0484 53.5314 82.6414L29.3534 74.7654C25.0854 73.3794 22.0274 67.5054 22.0274 60.6964V38.0474C22.0274 16.8174 13.8984 16.8174 13.8984 16.8174H96.9484C96.9484 16.8174 88.8194 16.8174 88.8194 38.0474V60.6964C88.8194 67.5054 85.7614 73.3684 81.4934 74.7654H81.4824Z" fill="white" style="fill:white;fill-opacity:1;"/>
<path d="M71.5166 66.0986H42.3242V66.1923H71.5166V66.0986Z" fill="#FEFEFE" style="fill:#FEFEFE;fill:color(display-p3 0.9961 0.9961 0.9961);fill-opacity:1;"/>
<path fill-rule="evenodd" clip-rule="evenodd" d="M40.5242 15.799C40.8468 15.0809 41.44 14.7478 42.1789 14.6021C42.6264 14.5085 43.074 14.5397 43.5215 14.5189C45.0721 14.4772 46.6124 14.2795 48.1423 14.0297C50.4735 13.6447 52.7631 13.1035 55.0215 12.4582C56.9087 11.9171 58.7716 11.3065 60.6102 10.6266C60.9432 10.5017 60.8704 10.5121 60.9849 10.8035C61.3491 11.7609 61.703 12.7184 62.0672 13.6759C62.1088 13.8008 62.088 13.8632 61.9839 13.9361C61.4948 14.2483 61.3803 14.5501 61.5156 15.1017C61.6925 15.8198 61.9735 16.4962 62.2441 17.1727C62.598 18.0469 62.9935 18.9003 63.3889 19.7433C63.441 19.8578 63.4306 19.9098 63.3057 19.9515C61.814 20.4441 60.3257 20.9367 58.841 21.4293C57.717 21.804 56.593 22.1786 55.469 22.5533C53.1517 23.3234 50.8343 24.0936 48.517 24.8637C46.8102 25.4257 45.1034 25.9911 43.3966 26.5601C43.1052 26.6537 42.8138 26.7474 42.5224 26.8515C42.3871 26.9035 42.3559 26.8515 42.3246 26.7266C42.0749 25.5402 41.8251 24.3433 41.5753 23.1569C41.1729 21.2767 40.7739 19.3964 40.3785 17.5162C40.2432 16.9021 40.2952 16.3089 40.5242 15.799ZM42.3558 17.3913C42.7513 17.5786 43.1988 17.4121 43.3862 17.027C43.5631 16.642 43.3862 16.184 42.9907 16.0071C42.6056 15.8302 42.1581 15.9863 41.9812 16.3714C41.7939 16.7668 41.9604 17.2144 42.3558 17.3913Z" fill="#231F20" style="fill:#231F20;fill:color(display-p3 0.1373 0.1216 0.1255);fill-opacity:1;"/>
<path fill-rule="evenodd" clip-rule="evenodd" d="M77.7992 8.54551C77.5078 9.20117 77.029 9.70072 76.4358 10.0962C76.3421 10.1586 76.2797 10.1482 76.2069 10.0754C75.4575 9.33646 74.5105 9.16995 73.5738 9.65909C72.8245 10.0546 72.096 10.4917 71.3363 10.8663C69.3485 11.8446 67.2982 12.646 65.1231 13.0727C64.8213 13.1351 64.5195 13.1872 64.2177 13.2288C63.6141 13.312 63.0313 13.4369 62.4693 13.6763C62.3652 13.7179 62.3027 13.7075 62.2611 13.593C61.8934 12.587 61.5187 11.5844 61.1371 10.5853C61.0851 10.4396 61.1684 10.4188 61.262 10.3772C63.2533 9.62093 65.2411 8.86467 67.2254 8.10841C69.4734 7.2446 71.7317 6.40161 74.0005 5.57944C74.4376 5.42333 74.8643 5.27763 75.3118 5.13193C75.7802 4.98623 76.2485 4.95501 76.7376 5.06949C77.31 5.20478 77.7055 5.56903 77.8928 6.12062C78.1634 6.93239 78.1738 7.74415 77.7992 8.54551ZM63.5828 10.7935C63.4684 11.0537 63.5932 11.3763 63.8534 11.5012C64.1136 11.6261 64.4466 11.4908 64.5715 11.2202C64.686 10.9496 64.5611 10.6374 64.2905 10.5229C64.0199 10.4084 63.7077 10.5333 63.5828 10.7935ZM69.2964 9.44054C69.567 9.57583 69.8896 9.46135 70.0145 9.19076C70.1394 8.94099 70.0249 8.60795 69.7648 8.48307C69.5046 8.35818 69.1819 8.47266 69.0571 8.73284C68.9218 9.00343 69.0258 9.31565 69.2964 9.44054ZM75.239 6.43284C74.958 6.29754 74.677 6.41202 74.5417 6.68261C74.4168 6.97401 74.5209 7.25501 74.8019 7.3799C75.0829 7.50478 75.3743 7.40071 75.4992 7.13012C75.624 6.84913 75.52 6.55772 75.239 6.43284Z" fill="#231F20" style="fill:#231F20;fill:color(display-p3 0.1373 0.1216 0.1255);fill-opacity:1;"/>
<path d="M42.457 27.3008C42.4883 27.2488 42.5403 27.2384 42.5819 27.228C44.4344 26.6174 46.2834 26.0034 48.129 25.3859C49.4299 24.9592 50.7308 24.5221 52.0317 24.085C54.5364 23.2593 57.0376 22.4302 59.5353 21.5976C60.8258 21.1744 62.1163 20.7477 63.4069 20.3175C63.6254 20.2447 63.615 20.2447 63.7191 20.4528C63.8127 20.6506 63.896 20.8483 64.0001 21.0356C64.0625 21.1605 64.0313 21.2021 63.9064 21.2438C63.2716 21.4519 62.6367 21.6601 62.0019 21.8786C60.7252 22.3018 59.4452 22.7251 58.1616 23.1483C55.7194 23.9601 53.2736 24.7718 50.8245 25.5836C48.1602 26.4717 45.496 27.3598 42.8317 28.2479C42.686 28.2999 42.6444 28.2687 42.6131 28.123C42.5715 27.894 42.5195 27.6547 42.4674 27.4257C42.457 27.3841 42.457 27.332 42.457 27.3008Z" fill="#231F20" style="fill:#231F20;fill:color(display-p3 0.1373 0.1216 0.1255);fill-opacity:1;"/>
<path d="M78.1021 25.3638C67.9862 24.7185 54.3423 24.885 42.0929 25.0099C38.5545 25.0411 32.3725 25.2493 32.0291 25.395C31.9458 25.5407 34.8391 25.676 36.8581 25.7384C41.073 25.8737 46.6409 25.8321 50.7205 25.9258C56.9545 26.0611 64.7808 26.009 70.9419 25.8737C73.6686 25.8113 76.8636 25.7488 78.4871 25.5511C78.9555 25.4887 78.7681 25.4054 78.1021 25.3638Z" fill="#7E2323" style="fill:#7E2323;fill:color(display-p3 0.4941 0.1373 0.1373);fill-opacity:1;"/>
<path d="M75.6342 25.3636C75.4157 25.3532 75.1867 25.3427 74.9682 25.3323C73.6256 25.2595 72.3768 25.1762 70.8885 25.1346C69.827 25.1034 68.703 25.1138 67.631 25.093C66.5279 25.0722 65.4663 25.0409 64.3632 25.0201C63.4994 24.9993 62.6356 24.9785 61.7717 24.9681C60.8767 24.9473 59.9401 24.9577 59.0242 24.9577C57.3903 24.9681 55.7668 24.9681 54.1328 24.9681C53.3731 24.9681 52.6342 24.9785 51.8744 24.9785C51.1772 24.9785 50.4591 24.9785 49.7618 24.9785C48.4505 24.9889 47.2016 25.0097 45.9007 25.0305C44.7351 25.0513 43.6423 25.093 42.4559 25.1034C41.3735 25.1138 40.3744 25.1138 39.3337 25.1554C38.907 25.1658 38.5219 25.1866 38.0744 25.197C37.0441 25.2179 36.1178 25.2491 35.15 25.2907C34.5984 25.3115 33.4536 25.3532 33.5056 25.426C33.5785 25.5197 34.5151 25.5509 35.3061 25.5821C36.5654 25.6342 37.6789 25.6862 39.0319 25.707C39.9789 25.7278 40.926 25.7486 41.8835 25.759C44.6414 25.7903 47.3369 25.8319 50.0532 25.8735C51.0939 25.8943 52.1346 25.8943 53.1858 25.9047C54.0287 25.9047 54.8509 25.9151 55.6939 25.9256C56.471 25.9325 57.2481 25.936 58.0251 25.936C58.601 25.9429 59.1769 25.9464 59.7527 25.9464C60.2211 25.9464 60.5437 25.936 60.9808 25.9256C62.1152 25.9047 63.2808 25.9256 64.4256 25.8943C65.1645 25.8839 65.893 25.8735 66.6632 25.8735C68.2243 25.8631 69.8582 25.8631 71.3464 25.8111C72.4288 25.7799 73.4903 25.7382 74.5831 25.6966C75.3949 25.6758 77.0392 25.6446 77.2994 25.5613C77.4243 25.5197 77.06 25.4676 76.7686 25.4364C76.446 25.4052 76.0505 25.3844 75.6342 25.3636Z" fill="#4D3123" style="fill:#4D3123;fill:color(display-p3 0.3020 0.1922 0.1373);fill-opacity:1;"/>
<path d="M76.3971 25.4684C76.1369 25.406 75.1378 25.3643 74.5238 25.3435C73.5143 25.2915 72.484 25.229 71.3496 25.1978C70.7252 25.1874 70.1007 25.1666 69.4451 25.1666C67.7175 25.1354 66.0107 25.1041 64.2935 25.0729C62.4826 25.0417 60.755 25.0105 58.8817 25.0105C57.3414 25.0105 55.7595 25.0001 54.2296 25.0105C53.2305 25.0209 52.2106 25.0105 51.2011 25.0105C50.0876 25.0105 48.9636 25.0105 47.85 25.0209C47.2256 25.0209 46.5803 25.0417 45.9663 25.0521C45.1337 25.0729 44.2803 25.0833 43.4373 25.1041C40.7418 25.1562 37.6717 25.1874 35.3717 25.3331C34.9242 25.3539 34.4558 25.3956 34.5079 25.4476C34.5703 25.5204 35.4237 25.5413 36.1314 25.5621C36.9328 25.5933 37.7654 25.6141 38.5979 25.6245C39.3473 25.6349 40.2527 25.6349 40.9604 25.6661C41.6681 25.687 42.2613 25.7078 43.0418 25.7182C43.8224 25.7286 44.6133 25.7286 45.3939 25.739C47.2568 25.7702 49.1509 25.8014 51.045 25.8223C52.3251 25.8431 53.6364 25.8327 54.9165 25.8431C56.769 25.8431 58.6111 25.8535 60.474 25.8535C62.1288 25.8535 63.7419 25.8535 65.3758 25.8118C66.2813 25.791 67.1971 25.7806 68.1129 25.7598C69.1537 25.7494 70.0695 25.739 71.1102 25.739C72.1822 25.739 73.4831 25.687 74.4926 25.6557C75.2627 25.6349 76.4283 25.5933 76.4596 25.51C76.4665 25.4962 76.4457 25.4823 76.3971 25.4684Z" fill="#C62039" style="fill:#C62039;fill:color(display-p3 0.7765 0.1255 0.2235);fill-opacity:1;"/>
<path d="M74.1712 25.4365C73.297 25.3637 71.4028 25.3012 70.8617 25.2908C68.1245 25.1868 65.0856 25.166 62.1716 25.1347C60.3711 25.1139 58.5915 25.1035 56.8014 25.1035C55.8752 25.0931 54.9281 25.0931 54.0123 25.1035C51.5874 25.1035 49.1937 25.1139 46.7688 25.1347C45.1245 25.1555 43.4593 25.1972 41.867 25.2388C40.639 25.27 39.3589 25.2908 38.2557 25.3429C37.9123 25.3637 37.2774 25.3741 37.1421 25.4157C36.7779 25.5094 39.9729 25.551 40.6181 25.5718C41.7942 25.6239 43.1263 25.6447 44.3856 25.6551C47.5702 25.6967 50.786 25.6967 53.9498 25.7279C55.2403 25.7488 56.51 25.7592 57.8109 25.7592C58.6019 25.7592 59.4033 25.7592 60.1942 25.7592C61.0164 25.7592 61.8386 25.7696 62.6711 25.7592C65.096 25.7384 67.5209 25.7071 69.925 25.6863C70.4037 25.6863 70.8617 25.6655 71.33 25.6655C72.0065 25.6551 72.454 25.6343 73.0472 25.6135C73.5259 25.5822 74.2232 25.5926 74.5354 25.5406C74.754 25.5094 74.5666 25.4782 74.1712 25.4365Z" fill="#CE7D7E" style="fill:#CE7D7E;fill:color(display-p3 0.8078 0.4902 0.4941);fill-opacity:1;"/>
<path d="M71.8159 25.3843C69.3494 25.301 66.8412 25.2594 64.2082 25.2386C61.8978 25.2177 59.577 25.2177 57.2665 25.1969C56.3715 25.1865 55.4869 25.1865 54.5919 25.1865C53.1036 25.1969 51.605 25.1969 50.1168 25.1969C48.4932 25.2073 46.8593 25.2282 45.2566 25.249C44.0285 25.2698 42.686 25.2906 41.5308 25.3322C41.0208 25.353 39.876 25.4051 40.7086 25.4571C41.0312 25.4675 41.2706 25.4675 41.6348 25.4779C42.0615 25.4883 42.4674 25.5091 42.8837 25.5196C43.4041 25.5404 43.9557 25.5508 44.4968 25.5612C45.7769 25.5924 47.1299 25.582 48.4412 25.582C50.148 25.582 51.8652 25.6132 53.5616 25.6236C55.3412 25.634 57.1833 25.6236 58.9837 25.6236C60.753 25.6236 62.5534 25.6236 64.3331 25.6132C65.9982 25.6132 67.6738 25.634 69.3286 25.6236C70.1091 25.6236 70.8272 25.6132 71.5661 25.5924C72.0344 25.5716 73.1376 25.5508 73.2417 25.4987C73.3562 25.4363 72.3571 25.4051 71.9096 25.3947C71.8749 25.3877 71.8436 25.3843 71.8159 25.3843Z" fill="#BE1E2D" style="fill:#BE1E2D;fill:color(display-p3 0.7451 0.1176 0.1765);fill-opacity:1;"/>
<path d="M67.6835 25.3537C66.8613 25.3329 66.0183 25.3329 65.1857 25.3121C64.2387 25.3017 63.2708 25.2913 62.3029 25.2913C60.6065 25.2809 58.9622 25.2705 57.2866 25.2601C55.9128 25.2497 54.5287 25.2497 53.1445 25.2393C51.9477 25.2393 50.7196 25.2601 49.502 25.2705C48.4821 25.2705 47.5142 25.2809 46.5047 25.2913C45.3599 25.3121 43.8092 25.3017 42.8101 25.3641C41.9671 25.4266 43.3721 25.4786 43.9029 25.489C45.1205 25.5098 46.2757 25.489 47.483 25.489C48.4196 25.4786 49.4499 25.4994 50.3658 25.5203C51.6251 25.5515 52.9884 25.5515 54.2893 25.5515C55.4237 25.5619 56.5373 25.5515 57.6717 25.5515C58.2337 25.5515 58.7644 25.5411 59.316 25.5411C60.4192 25.5307 61.4703 25.5515 62.5631 25.5515C63.7183 25.5515 64.8839 25.5515 66.0495 25.5515C66.8093 25.5515 67.5586 25.5515 68.3079 25.5411C68.8699 25.5307 69.4527 25.5411 70.0043 25.5203C70.4206 25.5098 70.7432 25.4786 70.4102 25.437C69.8274 25.3746 68.516 25.3746 67.6835 25.3537Z" fill="#3B2313" style="fill:#3B2313;fill:color(display-p3 0.2314 0.1373 0.0745);fill-opacity:1;"/>
<path d="M66.3505 25.3949C60.8035 25.3116 55.1939 25.3324 49.5532 25.3324C49.0224 25.3324 46.5559 25.3116 46.6184 25.3741C46.66 25.4261 48.4292 25.4365 48.9392 25.4365C51.593 25.4677 54.1532 25.4573 56.8279 25.4469C59.1071 25.4469 61.303 25.4573 63.551 25.4677C64.3836 25.4677 67.1831 25.5094 67.7451 25.4469C67.3496 25.3949 67.0062 25.4053 66.3505 25.3949Z" fill="#431111" style="fill:#431111;fill:color(display-p3 0.2627 0.0667 0.0667);fill-opacity:1;"/>
<path d="M53.7495 25.3539C52.8128 25.3435 51.6784 25.3331 50.9707 25.3019C52.6775 25.2915 54.0409 25.3227 55.5603 25.3435C57.1422 25.3643 59.2549 25.3331 60.9721 25.3227C60.1291 25.3539 59.2549 25.3747 58.3807 25.3955C60.3269 25.3747 62.3771 25.4476 64.3441 25.4476C61.5133 25.4372 58.7033 25.4892 55.8934 25.4684C53.2811 25.458 49.9612 25.4476 47.3906 25.4892C48.525 25.458 49.9404 25.4372 51.1893 25.4164C52.0219 25.3955 52.9273 25.3539 53.7495 25.3539Z" fill="#4D3123" style="fill:#4D3123;fill:color(display-p3 0.3020 0.1922 0.1373);fill-opacity:1;"/>
<path fill-rule="evenodd" clip-rule="evenodd" d="M78.7702 25.4473V72.2175H32V25.4473H78.7702Z" fill="#E51E25" style="fill:#E51E25;fill:color(display-p3 0.8980 0.1176 0.1451);fill-opacity:1;"/>
<g opacity="0.63">
<g style="mix-blend-mode:multiply" opacity="0.24">
<path d="M41.1168 53.3394C41.1376 56.9924 39.9303 60.5204 39.9616 64.2046C39.972 65.7553 40.0864 67.306 40.253 68.8463C40.2738 69.1099 40.3015 69.3736 40.3362 69.6372V69.6476C40.3778 70.0015 40.4195 70.3553 40.4611 70.7196C40.4715 70.7716 40.4715 70.8236 40.4819 70.8653C40.534 71.3024 40.586 71.7291 40.6484 72.1662H32V25.5H41.0231C41.1584 27.6855 41.1376 29.8711 41.0647 32.0462V32.067C40.9607 35.3869 40.7421 38.6964 40.7837 42.0371C40.7941 42.7448 40.815 43.4525 40.8462 44.1602C40.8878 44.861 40.9225 45.5652 40.9502 46.2729C41.0231 48.0525 41.0751 49.8426 41.0959 51.6222C41.0959 51.6326 41.0959 51.6326 41.0959 51.6326C41.1064 52.205 41.1168 52.767 41.1168 53.3394Z" fill="#7E4545" style="fill:#7E4545;fill:color(display-p3 0.4941 0.2706 0.2706);fill-opacity:1;"/>
</g>
<g style="mix-blend-mode:multiply" opacity="0.12">
<path d="M61.2135 56.3471C61.2031 57.929 61.0262 59.5526 60.7868 61.1761C60.7764 61.2385 60.766 61.301 60.7556 61.3738C60.6515 62.0399 60.5405 62.699 60.4226 63.3512C60.1832 64.7042 59.923 66.0467 59.6941 67.358C59.5275 68.2635 59.4443 69.0856 59.4443 69.887C59.4339 70.6571 59.4963 71.396 59.642 72.1662H48.8809C48.8809 72.1454 48.8705 72.135 48.8705 72.1141C48.8601 72.0725 48.8601 72.0413 48.8497 71.9997C48.8497 71.9892 48.8497 71.9788 48.8393 71.9684C48.652 70.9902 48.4646 70.0223 48.2877 69.0544V69.044C48.1628 68.3883 48.0587 67.7223 47.9443 67.0666V67.0562C47.9373 67.0562 47.9339 67.0527 47.9339 67.0458C47.7778 66.0467 47.6216 65.058 47.4863 64.0589C46.8515 59.4173 46.5601 54.7548 46.9035 50.082C46.9556 49.4367 47.018 48.7811 47.0909 48.1254C47.188 47.3067 47.306 46.488 47.4447 45.6693C47.528 45.1697 47.632 44.6702 47.7465 44.1706C48.1004 42.7032 48.5791 41.2774 49.0266 39.8516C49.6302 37.9159 50.1818 35.9905 50.2859 34.034C50.3171 33.4616 50.3067 32.8787 50.2443 32.2959V32.2751C50.1298 31.1407 49.828 29.9855 49.2556 28.7991C49.0474 28.3412 48.8289 27.8937 48.6311 27.4566C48.3189 26.7905 48.0379 26.1557 47.7778 25.5H59.923C59.923 25.8885 59.9196 26.2805 59.9126 26.676C59.8294 30.0168 59.3819 33.3783 59.1633 36.7398C59.0384 38.7276 58.9968 40.7154 59.1633 42.6824C59.1945 43.2236 59.257 43.7543 59.3402 44.2851C59.368 44.4933 59.3992 44.6979 59.4339 44.8991C60.0063 48.3648 61.0262 51.7575 61.1927 55.2648C61.2135 55.6256 61.2205 55.9863 61.2135 56.3471Z" fill="#BA8D72" style="fill:#BA8D72;fill:color(display-p3 0.7294 0.5529 0.4471);fill-opacity:1;"/>
</g>
<g style="mix-blend-mode:multiply" opacity="0.24">
<path d="M69.5157 46.9181C69.5157 46.9598 69.5157 47.0118 69.5157 47.0534C69.4845 48.5417 69.3908 50.0299 69.2555 51.5286C69.0266 54.1096 68.7143 56.6906 68.5686 59.2716C68.527 60.0209 68.5062 60.7598 68.4854 61.4675C68.4646 62.1544 68.4542 62.8309 68.4229 63.4865C68.4229 63.4865 68.4229 63.4865 68.4229 63.4969C68.3709 65.4119 68.2356 67.2331 67.7569 69.0856C67.5383 69.9598 67.2365 70.8444 66.8202 71.7603C66.8063 71.788 66.7925 71.8158 66.7786 71.8435C66.73 71.9476 66.678 72.0552 66.6225 72.1662H62.2723C61.9531 72.187 61.6443 72.2043 61.346 72.2182C61.346 72.2043 61.3495 72.187 61.3564 72.1662H56.0279C56.0799 70.4386 56.2673 68.7214 56.5274 67.0146C57.2872 62.0503 58.7026 57.1485 59.1917 52.153C59.2229 51.8408 59.2437 51.5286 59.275 51.2059C59.4311 49.01 59.1709 46.8765 58.7234 44.7743C58.3591 43.0883 57.8908 41.4127 57.4225 39.7371C56.5378 36.5629 55.6845 33.3679 55.7157 30.0168C55.7157 29.7323 55.7226 29.4444 55.7365 29.153C55.8093 27.9457 55.8302 26.7281 55.8197 25.5H65.6338C65.7483 26.8634 65.8836 28.1955 66.1125 29.5276C66.1229 29.538 66.1229 29.538 66.1125 29.538C66.3103 30.6828 66.5704 31.8172 66.9243 32.962C66.9451 33.0522 66.9694 33.1389 66.9971 33.2222C67.3094 34.1901 67.6008 35.1267 67.8714 36.053C68.8913 39.6018 69.5677 42.9842 69.5157 46.9181Z" fill="#8C5A59" style="fill:#8C5A59;fill:color(display-p3 0.5490 0.3529 0.3490);fill-opacity:1;"/>
</g>
<g style="mix-blend-mode:multiply" opacity="0.24">
<path d="M78.7713 25.5V56.5032C78.6256 58.6575 78.4486 61.0512 78.3029 63.4865C78.2301 64.725 78.1572 65.9634 78.1052 67.2019C78.0844 67.7327 78.0532 68.2635 78.0428 68.7838C77.9907 69.939 77.9699 71.0734 77.9595 72.1662H72.5685C72.6518 71.7915 72.7385 71.4134 72.8287 71.0318C72.8426 70.9693 72.8565 70.9069 72.8703 70.8445C73.0056 70.2408 73.1617 69.6372 73.3283 69.0336C73.5572 68.1698 73.8174 67.306 74.0984 66.4526C75.2328 63.0702 74.4314 56.6385 73.6717 52.0385C73.4948 50.9354 73.3179 49.9363 73.1722 49.1037C71.6319 40.4969 72.912 31.3385 73.5156 25.5H78.7713Z" fill="#8C5A59" style="fill:#8C5A59;fill:color(display-p3 0.5490 0.3529 0.3490);fill-opacity:1;"/>
</g>
<path d="M43.6343 39.4665C43.5926 36.6254 42.7184 29.7149 42.375 25.5H43.551C43.4782 30.1833 44.1234 34.9082 43.6343 39.4665Z" fill="#7E2323" style="fill:#7E2323;fill:color(display-p3 0.4941 0.1373 0.1373);fill-opacity:1;"/>
<path d="M62.8666 25.5H64.5213C63.8969 29.3091 62.6064 35.0747 62.6064 35.0747C62.315 33.295 62.8249 31.1407 62.7521 29.257C62.7313 28.6118 62.7833 27.1443 62.8666 25.5Z" fill="#7E2323" style="fill:#7E2323;fill:color(display-p3 0.4941 0.1373 0.1373);fill-opacity:1;"/>
<path d="M53.6024 25.5C53.5088 27.0715 53.4463 28.4453 53.4463 28.4453C53.2174 27.4149 53.1341 26.4575 53.1133 25.5H53.6024Z" fill="#7E2323" style="fill:#7E2323;fill:color(display-p3 0.4941 0.1373 0.1373);fill-opacity:1;"/>
<path d="M35.1196 25.5C35.1196 26.395 35.0988 27.2068 35.0468 27.8729C35.0155 28.3828 34.9635 28.7991 34.9011 29.1217C34.516 28.2996 34.6929 26.6656 34.6929 25.5H35.1196Z" fill="#4D3123" style="fill:#4D3123;fill:color(display-p3 0.3020 0.1922 0.1373);fill-opacity:1;"/>
<g style="mix-blend-mode:multiply" opacity="0.32">
<path d="M46.0171 66.8993C46.0483 68.5749 45.9338 70.1776 45.6216 71.541C45.6216 71.5826 45.6112 71.6346 45.6008 71.6659C45.5592 71.8324 45.5175 71.9989 45.4655 72.1654H43.3216C43.2384 71.874 43.1551 71.5826 43.0718 71.2912C43.0614 71.2392 43.051 71.1975 43.0302 71.1455C42.8533 70.4794 42.6764 69.8134 42.4266 69.1993C42.1352 68.4396 41.7501 67.7423 41.1673 67.1907C40.7302 67.6486 40.4492 68.221 40.2515 68.8455C40.1786 69.0536 40.1162 69.2722 40.0537 69.4907C39.9601 69.855 39.8768 70.2297 39.804 70.6043C39.7831 70.6564 39.7831 70.698 39.7623 70.75C39.6583 71.2287 39.5542 71.7075 39.4085 72.1654H37.8578C37.5872 71.593 37.4207 70.9686 37.3166 70.3025C37.3028 70.247 37.2923 70.188 37.2854 70.1256C37.1189 68.8663 37.1605 67.4821 37.1709 66.1708C37.1709 65.4319 37.1709 64.7242 37.0981 64.079C37.0911 64.0096 37.0842 63.9402 37.0773 63.8708C36.6714 60.0722 35.4121 56.4921 35.2768 52.5477C35.1623 49.2174 35.1831 45.6893 35.3809 42.13C35.4954 40.1006 35.6619 38.0712 35.8804 36.0522C36.2135 33.0133 36.6818 30.016 37.2854 27.1748C40.9904 30.7237 34.7044 41.7033 40.0537 41.7866H40.0641C40.2619 41.797 40.47 41.7866 40.699 41.7554C40.7302 41.849 40.751 41.9427 40.7822 42.0364C41.0841 43.0459 41.4067 44.0346 41.7397 45.0233C41.8646 45.384 41.993 45.7448 42.1248 46.1056C43.1759 49.1654 44.2687 52.1939 44.7578 55.4722C45.1637 58.1468 45.9755 62.7572 46.0171 66.8993Z" fill="#996E4E" style="fill:#996E4E;fill:color(display-p3 0.6000 0.4314 0.3059);fill-opacity:1;"/>
</g>
<g style="mix-blend-mode:multiply" opacity="0.32">
<path d="M60.2854 61.1761C60.275 61.2281 60.2646 61.2802 60.2542 61.3322C60.1363 61.9011 60.0079 62.4701 59.8691 63.039C59.4424 64.7562 58.8908 66.4526 58.2664 68.1177C57.7669 69.4915 57.2153 70.834 56.6325 72.1662H54.3221C54.27 70.9173 54.3221 69.5956 54.3949 68.3467V68.3363C54.4574 67.2956 54.5302 66.2965 54.5718 65.4223C54.6967 62.7372 55.1859 60.1354 54.5094 57.367C54.27 56.3679 53.8641 55.4105 53.4687 54.4634C53.1148 53.5996 52.7818 52.7358 52.584 51.8096C52.5216 51.5459 52.4765 51.2753 52.4488 50.9978C52.2926 49.5096 52.2614 47.8964 52.3343 46.2C52.5424 41.0068 53.708 35.1059 55.2171 30.0168C55.6854 28.414 56.185 26.8946 56.7053 25.5H57.4026C57.3818 25.6873 57.361 25.8643 57.3402 26.0412C57.08 27.9769 56.7261 29.9231 56.851 31.734C56.9863 33.6593 57.8605 35.5014 58.2872 37.3643C58.3185 37.51 58.3497 37.6453 58.3705 37.7806C58.3601 39.5082 58.4433 41.1005 58.6619 42.6824C58.7243 43.2028 58.8076 43.7127 58.9013 44.2331C59.1406 45.534 59.4633 46.8661 59.8795 48.3127C60.3791 49.9987 60.6809 51.6847 60.8058 53.3498C61.0139 56.0037 60.7954 58.6159 60.2854 61.1761Z" fill="#996E4E" style="fill:#996E4E;fill:color(display-p3 0.6000 0.4314 0.3059);fill-opacity:1;"/>
</g>
<g style="mix-blend-mode:multiply" opacity="0.32">
<path d="M76.5491 46.2103C76.4658 48.4687 76.3722 50.8103 76.2265 53.152C76.0391 56.1597 75.7582 59.1674 75.2794 61.9981C75.0609 63.2366 74.8735 65.4429 74.5509 67.7637C74.4572 68.3986 74.3636 69.0438 74.2491 69.6683C74.2387 69.7515 74.2179 69.8244 74.2075 69.9076C74.1138 70.3864 74.0201 70.8651 73.9161 71.3334H71.1477C71.1269 71.0629 71.1061 70.7819 71.0957 70.5009C71.0957 70.4592 71.0853 70.4072 71.0853 70.3656C71.0541 69.6683 71.0437 68.9606 71.0957 68.2321C71.1061 68.0552 71.1269 67.8678 71.1477 67.6805C71.1477 67.6805 71.1477 67.677 71.1477 67.6701C71.1685 67.4828 71.1928 67.2954 71.2206 67.1081C71.3663 66.1298 71.4842 65.155 71.5744 64.1837C71.8346 61.6027 71.9283 59.0216 71.9699 56.3262C71.8242 57.4189 71.5952 58.7094 71.2622 60.0728C70.9292 61.4882 70.4921 62.966 69.9509 64.3398C69.8885 64.4959 69.826 64.652 69.7636 64.8081C69.2016 66.1506 68.5355 67.3579 67.755 68.2529C67.6717 68.357 67.578 68.4506 67.4844 68.5547C67.6197 67.6909 67.7341 66.8167 67.8278 65.9425C67.8278 65.9321 67.8278 65.9217 67.8278 65.9217C67.9943 64.4334 68.0984 62.9244 68.1608 61.3945C68.3898 56.3574 68.14 51.1642 67.7342 46.1583C67.6717 45.4645 67.6301 44.7741 67.6093 44.0872C67.5815 43.3379 67.5676 42.592 67.5676 41.8497C67.578 39.6537 67.7029 37.4474 67.8694 35.2202C67.8799 35.0641 67.8903 34.9184 67.9007 34.7727C68.1608 31.3175 69.7636 28.0704 69.9821 24.6673C69.9821 24.6569 69.9925 24.636 69.9925 24.6152C69.9925 24.636 70.0029 24.6569 70.0029 24.6673C70.6482 27.4252 68.702 30.9324 69.9197 33.4718C71.6265 31.7858 71.0957 27.9143 71.6056 24.6673H72.5839C72.5319 28.2474 72.5527 31.8379 72.0532 35.189C71.6889 37.6659 70.7419 40.0284 70.6482 42.5261C70.5649 44.7325 71.4391 46.637 71.4808 48.7289C71.4946 49.0272 71.4842 49.3325 71.4495 49.6447C71.6161 49.5406 71.7826 49.4262 71.9491 49.3013C72.355 48.9995 72.7609 48.6352 73.1667 48.2709C73.5622 47.9171 73.9681 47.5528 74.374 47.2406C74.988 46.7619 75.6229 46.3872 76.2993 46.2519C76.3826 46.2311 76.4658 46.2172 76.5491 46.2103Z" fill="#996E4E" style="fill:#996E4E;fill:color(display-p3 0.6000 0.4314 0.3059);fill-opacity:1;"/>
</g>
<g style="mix-blend-mode:multiply" opacity="0.32">
<path d="M51.6954 65.3378C51.6642 67.1383 51.456 68.9179 51.0189 70.6768C50.9912 70.8155 50.9599 70.9543 50.9252 71.0931C50.8281 71.4538 50.7206 71.8112 50.6026 72.165H48.7918C48.7918 72.1442 48.8022 72.1234 48.8022 72.1026C48.8126 72.0713 48.823 72.0297 48.823 71.9985C48.8299 71.9846 48.8334 71.9742 48.8334 71.9673C48.9791 71.3949 49.1248 70.8225 49.2809 70.2501C49.666 68.8035 50.0302 67.3673 50.1447 65.9623C50.2488 64.651 50.228 63.3605 50.0927 62.0908C49.9574 60.7795 49.718 59.489 49.385 58.1985C49.385 58.1915 49.385 58.1811 49.385 58.1672C49.2115 57.5081 49.0207 56.842 48.8126 56.169C48.2089 54.2229 47.3868 52.1727 46.8976 50.0808C46.627 48.8736 46.4501 47.6455 46.5126 46.4174C46.5542 45.4704 46.7207 44.5337 46.9393 43.5867C47.1162 42.8477 47.3243 42.1088 47.5325 41.3595C48.1257 39.2781 48.7501 37.1758 48.6773 35.0215C48.7813 36.7907 48.9375 38.279 49.0207 39.8505C49.0727 40.9328 49.0936 42.0672 49.0415 43.3681C49.0207 43.8885 49.0103 44.4192 48.9999 44.9396C48.9375 48.3324 49.1976 51.6523 50.1343 54.8057C50.3286 55.4718 50.5055 56.1378 50.6651 56.8039C51.3728 59.6659 51.7578 62.5279 51.6954 65.3378Z" fill="#996E4E" style="fill:#996E4E;fill:color(display-p3 0.6000 0.4314 0.3059);fill-opacity:1;"/>
</g>
<g style="mix-blend-mode:multiply" opacity="0.32">
<path d="M64.397 70.5734C64.3762 71.0417 64.3554 71.51 64.3241 71.9784C64.3311 71.9992 64.3311 72.02 64.3241 72.0408C64.3241 72.0825 64.3241 72.1241 64.3241 72.1657H62.2739C61.9547 72.1865 61.646 72.2039 61.3477 72.2177C61.3477 72.2039 61.3511 72.1865 61.3581 72.1657C61.4517 71.7078 61.5766 71.2499 61.7119 70.8024C62.4196 68.3775 63.5124 66.0358 63.7621 63.5381C64.4594 65.5675 64.5011 68.0548 64.397 70.5734Z" fill="#996E4E" style="fill:#996E4E;fill:color(display-p3 0.6000 0.4314 0.3059);fill-opacity:1;"/>
</g>
<g style="mix-blend-mode:multiply" opacity="0.32">
<path d="M32.9471 65.8896C32.8534 66.4412 32.7493 66.9823 32.6765 67.5339C32.6244 67.8982 32.5724 68.2728 32.5516 68.6371C32.5516 68.6475 32.5516 68.6579 32.5516 68.6787C32.4683 69.8235 32.4995 70.9891 32.5828 72.1652H32V58.9688C32.1388 59.1422 32.2637 59.3191 32.3747 59.4995C33.686 61.5185 33.3425 63.6936 32.9471 65.8896Z" fill="#996E4E" style="fill:#996E4E;fill:color(display-p3 0.6000 0.4314 0.3059);fill-opacity:1;"/>
</g>
<g style="mix-blend-mode:multiply" opacity="0.32">
<path d="M78.4572 25.5H78.7694V41.5896C78.0513 40.7883 77.0834 40.2575 75.8554 40.3199C75.387 36.7607 77.0522 32.7643 77.6662 29.2362C77.864 28.1122 78.1242 26.8321 78.4572 25.5Z" fill="#996E4E" style="fill:#996E4E;fill:color(display-p3 0.6000 0.4314 0.3059);fill-opacity:1;"/>
</g>
<g style="mix-blend-mode:multiply" opacity="0.32">
<path d="M32.0104 47.6364C32.0104 47.6434 32.0069 47.6503 32 47.6572V44.0771C32.1353 45.3468 32.6557 46.8143 32.0104 47.6364Z" fill="#996E4E" style="fill:#996E4E;fill:color(display-p3 0.6000 0.4314 0.3059);fill-opacity:1;"/>
</g>
<g style="mix-blend-mode:multiply" opacity="0.32">
<path d="M32.1769 37.0514C32.1457 38.8414 32.052 40.517 32 41.8283V31.2129C32.1977 33.0758 32.2186 35.126 32.1769 37.0514Z" fill="#996E4E" style="fill:#996E4E;fill:color(display-p3 0.6000 0.4314 0.3059);fill-opacity:1;"/>
</g>
<path d="M38.367 69.7205C38.2837 69.0336 38.1901 68.3987 38.0964 67.7951C37.857 66.3797 37.5344 65.1413 37.0765 63.8716C36.8163 63.1223 36.5041 62.3729 36.1398 61.5716C36.1329 61.6479 36.1121 61.7312 36.0774 61.8214C35.9837 62.1856 35.7443 62.6539 35.5258 63.091C35.2968 63.5594 35.0783 63.9757 35.0262 64.1838C34.8909 57.5856 34.5579 51.0186 34.152 44.3684C34.0584 42.9009 33.9959 41.4231 33.9543 39.9453C33.871 37.562 33.819 35.1788 33.6629 32.8267C33.5068 30.2977 34.0896 27.9249 34.3394 25.5H34.7348C34.8285 26.3014 34.943 27.0923 35.0471 27.8729C35.4321 30.5579 35.8276 33.2014 35.8796 36.0217V36.053C35.9317 38.3322 35.9109 40.6113 35.9421 42.8801C35.9629 44.7118 36.0045 46.5331 36.1086 48.3335C36.5249 55.0566 37.9819 61.5404 38.3045 68.0345C38.3392 68.5965 38.36 69.1585 38.367 69.7205Z" fill="#AE1F23" style="fill:#AE1F23;fill:color(display-p3 0.6824 0.1216 0.1373);fill-opacity:1;"/>
<path d="M43.5914 63.1004C41.281 56.3044 40.7294 48.7592 40.0113 41.3492C39.6574 37.5818 38.5438 29.8076 40.2194 26.498C41.7909 33.294 41.104 41.0994 42.0511 47.8433C42.6547 52.152 45.7769 59.5723 43.914 63.6208C43.9973 63.4126 43.4249 63.2357 43.5914 63.1004Z" fill="#AE1F23" style="fill:#AE1F23;fill:color(display-p3 0.6824 0.1216 0.1373);fill-opacity:1;"/>
<path d="M54.4672 70.8444C54.1134 70.5322 53.8324 70.1472 53.593 69.6996C51.6677 66.1716 52.8853 58.9906 50.9912 55.4625C50.8351 55.8684 50.731 56.3159 50.6686 56.805C50.398 59.2091 51.2722 62.4562 51.6989 65.339C52.0215 67.4829 52.0944 69.4186 51.2514 70.6779C51.1577 70.8236 51.0536 70.9693 50.9288 71.0942C50.8247 71.1983 50.7102 71.3024 50.5957 71.396C50.6096 71.1532 50.62 70.9104 50.6269 70.6675C50.7414 67.9929 50.5333 65.0268 50.0962 62.0919C49.9088 60.7806 49.6695 59.4693 49.3885 58.1996C49.3885 58.1927 49.3885 58.1823 49.3885 58.1684C49.0346 56.5345 48.6183 54.963 48.1708 53.5059C47.5256 51.4557 47.203 49.7593 47.0885 48.1254C46.9948 46.6996 47.0677 45.3154 47.2238 43.796C47.307 43.0362 47.4215 42.2245 47.536 41.3607C47.6088 40.8403 47.6921 40.2887 47.7754 39.7059C48.3478 35.8032 48.3686 31.5778 48.6287 27.4566C48.66 26.8009 48.7016 26.1453 48.764 25.5H50.1482C50.169 27.7688 50.2002 30.0272 50.2419 32.2751V32.2959C50.2557 32.8787 50.2696 33.4581 50.2835 34.034C50.3668 37.9783 50.5229 41.8914 50.7726 45.7109C50.9079 47.605 51.0536 49.4887 51.241 51.3308C52.0631 51.1435 52.6564 51.3412 53.0831 51.8096C53.6034 52.3924 53.8636 53.3706 53.9677 54.4634C54.1654 56.3992 53.8948 58.7096 53.8012 59.8544C53.5514 62.9974 54.3007 65.7969 54.4672 68.8046C54.4984 69.4707 54.5088 70.1472 54.4672 70.8444Z" fill="#AE1F23" style="fill:#AE1F23;fill:color(display-p3 0.6824 0.1216 0.1373);fill-opacity:1;"/>
<path d="M61.3078 53.3498C61.2766 53.9951 61.235 54.6299 61.1934 55.2648C61.0477 57.3254 60.8499 59.3548 60.7563 61.3322C60.7563 61.3426 60.7563 61.3634 60.7563 61.3738C60.7042 62.5915 60.6938 63.7987 60.7563 64.9852C60.6314 64.4544 60.5169 63.9132 60.4232 63.3512C60.4024 63.2471 60.3851 63.1431 60.3712 63.039C59.7884 59.5838 59.6635 55.7019 59.1952 52.153C59.1744 52.0004 59.1535 51.8477 59.1327 51.6951C58.8205 49.5304 58.4979 47.3448 58.1753 45.1281C57.9151 43.3381 57.6549 41.5376 57.4259 39.7371C57.3739 39.3521 57.3219 38.967 57.2802 38.5819C56.9472 35.9177 56.7807 30.1104 57.8422 26.0412C57.8839 25.8538 57.9359 25.6769 57.9879 25.5H60.0278C59.9965 25.8955 59.9549 26.2805 59.9133 26.676C59.5802 29.4339 58.9454 32.1919 59.0287 34.8249C59.0495 35.4702 59.0946 36.1085 59.164 36.7398C59.4241 38.9566 59.9653 41.1213 60.4545 43.2756C60.6002 43.9313 60.7459 44.5869 60.8707 45.253C61.4015 47.9797 61.4431 50.696 61.3078 53.3498Z" fill="#AE1F23" style="fill:#AE1F23;fill:color(display-p3 0.6824 0.1216 0.1373);fill-opacity:1;"/>
<path d="M71.2655 68.5965C71.2135 68.763 71.1615 68.9191 71.099 69.0648C70.9845 69.3458 70.8492 69.5852 70.6931 69.7829C70.5266 69.1168 70.4017 68.4612 70.2976 67.7847C70.1624 66.9209 70.0583 66.0467 69.9542 65.1725C69.7981 63.6843 69.6524 62.1856 69.361 60.7078C68.9655 60.8535 68.6845 61.1241 68.4868 61.4675C68.3515 61.6861 68.2578 61.9462 68.1642 62.2272C67.8415 63.268 67.7687 64.6001 67.2379 65.4951C65.9578 64.2046 67.113 56.8779 67.1442 54.5987C67.1859 51.1331 66.2909 48.1462 66.3117 44.639C66.3186 44.3545 66.3186 44.07 66.3117 43.7856C66.2596 40.0389 65.7497 36.3027 65.9682 32.4625C66.0099 31.6403 66.0515 30.6308 66.1139 29.538C66.1243 29.538 66.1243 29.538 66.1139 29.5276C66.1972 28.2579 66.3013 26.8634 66.4782 25.5H67.4252C67.1026 27.9769 66.9569 30.4851 66.9257 32.962C66.9188 33.2742 66.9153 33.583 66.9153 33.8883C66.8945 36.7711 67.2483 39.81 67.5709 42.6824C67.6334 43.1542 67.6889 43.626 67.7375 44.0978C67.7791 44.4586 67.8277 44.8228 67.8832 45.1905C68.237 47.272 68.9031 49.4159 69.2569 51.5286C69.4547 52.6838 69.5587 53.8286 69.4755 54.9526C69.3506 56.6177 70.8596 56.6594 71.0574 58.8241C71.099 59.4069 71.1927 60.1146 71.2655 60.9055C71.4112 62.1648 71.5465 63.6218 71.5777 65.0164C71.609 66.3485 71.5465 67.6182 71.2655 68.5965Z" fill="#AE1F23" style="fill:#AE1F23;fill:color(display-p3 0.6824 0.1216 0.1373);fill-opacity:1;"/>
<path d="M76.0239 53.8598C75.7741 55.5041 75.3266 56.8675 74.6189 57.6584C74.5669 56.0245 74.5461 54.4114 74.5253 52.7983C74.494 51.2268 74.4628 49.6553 74.3796 48.0734C74.3275 46.9702 74.2443 45.8774 74.1298 44.7743C73.7863 41.3711 74.3379 38.3634 74.3275 34.8874C74.3067 31.3385 73.6823 28.5493 74.2026 25.5H74.6293C74.2651 29.9855 75.233 35.5534 75.6492 39.0815C75.8678 40.9028 76.1904 43.9521 76.3049 47.0847C76.3882 49.4471 76.3465 51.8616 76.0239 53.8598Z" fill="#AE1F23" style="fill:#AE1F23;fill:color(display-p3 0.6824 0.1216 0.1373);fill-opacity:1;"/>
<path d="M62.2739 72.165C61.9547 72.1859 61.646 72.2032 61.3477 72.2171C61.3477 72.2032 61.3511 72.1859 61.3581 72.165H62.2739Z" fill="#8C5A59" style="fill:#8C5A59;fill:color(display-p3 0.5490 0.3529 0.3490);fill-opacity:1;"/>
<path d="M69.9948 25.4473C69.9948 25.4681 70.0052 25.4889 70.0052 25.4993H69.9844C69.9844 25.4889 69.9948 25.4681 69.9948 25.4473Z" fill="#8C5A59" style="fill:#8C5A59;fill:color(display-p3 0.5490 0.3529 0.3490);fill-opacity:1;"/>
</g>
<path d="M35.7656 57.3455V48.874H37.9512V51.965L41.1045 48.874H43.6439L39.5643 52.8912L44.0602 57.3455H41.3231L37.9512 54.0048V57.3455H35.7656ZM48.5353 54.4835H47.4738C47.0506 54.4835 46.7314 54.5564 46.5163 54.7021C46.3082 54.8478 46.2041 55.0594 46.2041 55.3369C46.2041 55.5936 46.2874 55.7948 46.4539 55.9406C46.6273 56.0863 46.8667 56.1591 47.172 56.1591C47.5536 56.1591 47.8762 56.0238 48.1399 55.7532C48.4035 55.4757 48.5353 55.1323 48.5353 54.7229V54.4835ZM50.5752 53.7134V57.3351H48.5353V56.3985C48.2578 56.7801 47.9491 57.0611 47.6091 57.2415C47.2691 57.4149 46.8563 57.5016 46.3706 57.5016C45.7115 57.5016 45.1773 57.3108 44.7679 56.9292C44.3586 56.5407 44.1539 56.0412 44.1539 55.4306C44.1539 54.6882 44.4071 54.1436 44.9136 53.7967C45.434 53.4428 46.2423 53.2659 47.3385 53.2659H48.5353V53.1098C48.5353 52.7906 48.407 52.5582 48.1503 52.4125C47.9005 52.2598 47.505 52.1835 46.9638 52.1835C46.5337 52.1835 46.1313 52.2252 45.7566 52.3084C45.3819 52.3986 45.0316 52.5304 44.7055 52.7039V51.1532C45.1426 51.0491 45.5797 50.9693 46.0168 50.9138C46.4539 50.8583 46.8945 50.8306 47.3385 50.8306C48.4833 50.8306 49.3089 51.0561 49.8154 51.5071C50.3219 51.958 50.5752 52.6935 50.5752 53.7134ZM56.8611 51.9129V48.5098H58.901V57.3351H56.8611V56.4193C56.5836 56.7939 56.2749 57.068 55.9349 57.2415C55.6019 57.4149 55.2133 57.5016 54.7693 57.5016C53.9853 57.5016 53.3435 57.1929 52.8439 56.5754C52.3375 55.951 52.0842 55.1496 52.0842 54.1713C52.0842 53.1861 52.3375 52.3847 52.8439 51.7672C53.3435 51.1428 53.9853 50.8306 54.7693 50.8306C55.2064 50.8306 55.5949 50.9208 55.9349 51.1012C56.2749 51.2746 56.5836 51.5452 56.8611 51.9129ZM55.5186 56.0238C55.9557 56.0238 56.2887 55.8677 56.5177 55.5555C56.7467 55.2363 56.8611 54.7749 56.8611 54.1713C56.8611 53.5608 56.7467 53.0994 56.5177 52.7872C56.2887 52.468 55.9557 52.3084 55.5186 52.3084C55.0884 52.3084 54.7589 52.468 54.5299 52.7872C54.301 53.0994 54.1865 53.5608 54.1865 54.1713C54.1865 54.7749 54.301 55.2363 54.5299 55.5555C54.7589 55.8677 55.0884 56.0238 55.5186 56.0238ZM64.6666 54.4835H63.6051C63.1818 54.4835 62.8627 54.5529 62.6476 54.6917C62.4394 54.8374 62.3354 55.049 62.3354 55.3265C62.3354 55.5832 62.4186 55.7879 62.5851 55.9406C62.7586 56.0793 62.998 56.1487 63.3032 56.1487C63.6848 56.1487 64.0075 56.0134 64.2711 55.7428C64.5348 55.4653 64.6666 55.1218 64.6666 54.7125V54.4835ZM66.7064 53.7134V57.3455H64.6666V56.3985C64.3891 56.787 64.0803 57.068 63.7403 57.2415C63.4004 57.4219 62.9876 57.512 62.5019 57.512C61.8428 57.512 61.3085 57.3178 60.8992 56.9292C60.4898 56.5476 60.2851 56.0516 60.2851 55.441C60.2851 54.6917 60.5384 54.1436 61.0449 53.7967C61.5652 53.4497 62.3735 53.2763 63.4698 53.2763H64.6666V53.1202C64.6666 52.7941 64.5382 52.5582 64.2815 52.4125C64.0318 52.2598 63.6363 52.1835 63.0951 52.1835C62.6649 52.1835 62.2625 52.2286 61.8879 52.3188C61.5132 52.4021 61.1628 52.5304 60.8367 52.7039V51.1532C61.2738 51.0491 61.7109 50.9728 62.148 50.9242C62.5851 50.8618 63.0257 50.8306 63.4698 50.8306C64.6146 50.8306 65.4402 51.0595 65.9467 51.5175C66.4532 51.9684 66.7064 52.7004 66.7064 53.7134ZM68.6734 57.3455V50.9867H70.7028V57.3455H68.6734ZM68.6734 50.1749V48.5098H70.7028V50.1749H68.6734Z" fill="white" style="fill:white;fill-opacity:1;"/>
<path d="M35.9766 48.1864V39.7148H38.1621V48.1864H35.9766ZM44.8748 41.7234V43.5655C44.7013 43.4823 44.5244 43.4198 44.344 43.3782C44.1705 43.3366 43.9936 43.3158 43.8132 43.3158C43.2929 43.3158 42.8905 43.4857 42.606 43.8257C42.3285 44.1587 42.1897 44.6375 42.1897 45.2619V48.1864H40.1603V41.8275H42.1897V42.8786C42.4464 42.4624 42.7448 42.1605 43.0847 41.9732C43.4247 41.7789 43.8306 41.6818 44.3024 41.6818C44.3718 41.6818 44.4446 41.6853 44.5209 41.6922C44.6042 41.6922 44.7221 41.7026 44.8748 41.7234ZM49.787 45.3244H48.7255C48.3022 45.3244 47.9831 45.3972 47.768 45.5429C47.5598 45.6886 47.4558 45.9002 47.4558 46.1778C47.4558 46.4345 47.539 46.6357 47.7055 46.7814C47.879 46.9271 48.1184 46.9999 48.4236 46.9999C48.8052 46.9999 49.1279 46.8646 49.3915 46.594C49.6552 46.3165 49.787 45.9731 49.787 45.5637V45.3244ZM51.8268 44.5542V48.1759H49.787V47.2393C49.5095 47.6209 49.2007 47.9019 48.8608 48.0823C48.5208 48.2557 48.108 48.3425 47.6223 48.3425C46.9632 48.3425 46.4289 48.1517 46.0196 47.7701C45.6102 47.3815 45.4055 46.882 45.4055 46.2714C45.4055 45.529 45.6588 44.9844 46.1653 44.6375C46.6856 44.2836 47.4939 44.1067 48.5902 44.1067H49.787V43.9506C49.787 43.6314 49.6586 43.399 49.4019 43.2533C49.1522 43.1007 48.7567 43.0243 48.2155 43.0243C47.7853 43.0243 47.3829 43.066 47.0083 43.1492C46.6336 43.2394 46.2832 43.3713 45.9571 43.5447V41.994C46.3942 41.89 46.8313 41.8102 47.2684 41.7547C47.7055 41.6992 48.1461 41.6714 48.5902 41.6714C49.735 41.6714 50.5606 41.8969 51.0671 42.3479C51.5736 42.7989 51.8268 43.5343 51.8268 44.5542ZM53.6897 48.1759V41.8275H55.7191V48.1759H53.6897ZM53.6897 41.0053V39.3506H55.7191V41.0053H53.6897ZM62.8793 42.0253V43.68C62.6088 43.4927 62.3312 43.3539 62.0468 43.2637C61.7692 43.1735 61.4813 43.1284 61.183 43.1284C60.621 43.1284 60.1804 43.2949 59.8612 43.628C59.549 43.9541 59.3929 44.4155 59.3929 45.0121C59.3929 45.6019 59.549 46.0633 59.8612 46.3963C60.1804 46.7293 60.621 46.8959 61.183 46.8959C61.5021 46.8959 61.8039 46.8473 62.0884 46.7502C62.3729 46.653 62.6365 46.5143 62.8793 46.3339V47.9886C62.5671 48.1066 62.2445 48.1968 61.9115 48.2592C61.5854 48.3147 61.2593 48.3425 60.9332 48.3425C59.7884 48.3425 58.8899 48.0511 58.2377 47.4683C57.5925 46.8785 57.2698 46.0598 57.2698 45.0121C57.2698 43.9645 57.5925 43.1458 58.2377 42.556C58.8899 41.9663 59.7884 41.6714 60.9332 41.6714C61.2662 41.6714 61.5923 41.7026 61.9115 41.7651C62.2376 41.8206 62.5602 41.9073 62.8793 42.0253ZM71.0074 44.3148V48.1759H68.9676V47.5515V45.2307C68.9676 44.6756 68.9537 44.294 68.926 44.0859C68.8982 43.8777 68.8566 43.7251 68.8011 43.628C68.7178 43.4961 68.6103 43.3921 68.4784 43.3158C68.3397 43.2394 68.1836 43.2013 68.0101 43.2013C67.5869 43.2013 67.2539 43.3678 67.011 43.7008C66.7682 44.0269 66.6468 44.4779 66.6468 45.0538V48.1759H64.6174V39.3506H66.6468V42.7538C66.9521 42.386 67.2781 42.1154 67.6251 41.942C67.965 41.7616 68.3432 41.6714 68.7594 41.6714C69.4949 41.6714 70.0534 41.8969 70.435 42.3479C70.8166 42.7989 71.0074 43.4545 71.0074 44.3148ZM72.8391 48.1759V41.8275H74.8685V48.1759H72.8391ZM72.8391 41.0053V39.3506H74.8685V41.0053H72.8391Z" fill="white" style="fill:white;fill-opacity:1;"/>
<path fill-rule="evenodd" clip-rule="evenodd" d="M77.7966 59.7285V59.8014H54.4844V59.7285H77.7966Z" fill="#FEFEFE" style="fill:#FEFEFE;fill:color(display-p3 0.9961 0.9961 0.9961);fill-opacity:1;"/>
<path d="M34.9766 59.1463H35.3512V60.364H35.5281V59.1463H35.9028V59.0006H34.9766V59.1463ZM36.2462 59.8228C36.2462 60.1558 36.4648 60.3848 36.7562 60.3848C36.9539 60.3848 37.0892 60.2807 37.1517 60.1663V60.364H37.3286V59.292H37.1517V59.4898C37.0892 59.3753 36.9539 59.2816 36.7562 59.2816C36.4648 59.2816 36.2462 59.4898 36.2462 59.8228ZM37.1517 59.8332C37.1517 60.083 36.9852 60.2287 36.7874 60.2287C36.5897 60.2287 36.4336 60.083 36.4336 59.8228C36.4336 59.573 36.5897 59.4273 36.7874 59.4273C36.9852 59.4273 37.1517 59.5835 37.1517 59.8332ZM38.6399 60.0726C38.6399 59.6875 38.0155 59.8332 38.0155 59.573C38.0155 59.4898 38.0883 59.4273 38.2236 59.4273C38.3693 59.4273 38.4526 59.5106 38.4526 59.6147H38.6295C38.6191 59.4065 38.463 59.2816 38.234 59.2816C37.9947 59.2816 37.8386 59.4169 37.8386 59.573C37.8386 59.9789 38.4734 59.8332 38.4734 60.0726C38.4734 60.1663 38.3901 60.2287 38.2549 60.2287C38.0987 60.2287 38.0051 60.1558 37.9947 60.0518H37.8177C37.8282 60.2495 38.0051 60.3848 38.2549 60.3848C38.4942 60.3848 38.6399 60.2495 38.6399 60.0726ZM39.0562 60.0726C39.0562 60.2911 39.1707 60.364 39.358 60.364H39.5141V60.2183H39.3892C39.2748 60.2183 39.2331 60.1767 39.2331 60.0726V59.4377H39.5141V59.292H39.2331V59.0215H39.0562V59.292H38.9209V59.4377H39.0562V60.0726ZM40.3051 59.4273C40.4924 59.4273 40.6485 59.5522 40.6485 59.7604H39.972C39.9929 59.5522 40.1282 59.4273 40.3051 59.4273ZM40.8046 60.0414H40.6173C40.5757 60.1559 40.4716 60.2391 40.3155 60.2391C40.1282 60.2391 39.9825 60.1142 39.972 59.9061H40.8254C40.8254 59.8644 40.8254 59.8332 40.8254 59.7916C40.8254 59.5002 40.6277 59.2816 40.3155 59.2816C40.0033 59.2816 39.7847 59.4898 39.7847 59.8332C39.7847 60.1767 40.0137 60.3848 40.3155 60.3848C40.5757 60.3848 40.7526 60.2391 40.8046 60.0414ZM42.8132 59.9997C42.8132 59.4898 42.0847 59.7187 42.0847 59.3649C42.0847 59.2192 42.1992 59.1359 42.3449 59.1463C42.5114 59.1463 42.5947 59.2504 42.6051 59.3441H42.8028C42.782 59.1359 42.6155 58.9902 42.3553 58.9902C42.0847 58.9902 41.8974 59.1463 41.8974 59.3649C41.8974 59.8749 42.6363 59.6355 42.6363 60.0101C42.6363 60.135 42.5322 60.2287 42.3657 60.2287C42.1784 60.2287 42.0951 60.1246 42.0847 60.0101H41.8974C41.8974 60.2287 42.0951 60.3848 42.3657 60.3848C42.6571 60.3848 42.8132 60.1871 42.8132 59.9997ZM43.3232 60.0726C43.3232 60.2911 43.4377 60.3744 43.625 60.3744H43.7811V60.2183H43.6562C43.5417 60.2183 43.5001 60.1871 43.5001 60.0726V59.4482H43.7811V59.3025H43.5001V59.0319H43.3232V59.3025H43.1879V59.4482H43.3232V60.0726ZM44.0517 59.8228C44.0517 60.1558 44.2703 60.3848 44.5617 60.3848C44.7594 60.3848 44.8947 60.2807 44.9571 60.1663V60.364H45.1341V59.292H44.9571V59.4898C44.8947 59.3753 44.7594 59.2712 44.5617 59.2712C44.2703 59.2712 44.0517 59.4898 44.0517 59.8228ZM44.9571 59.8228C44.9571 60.083 44.7906 60.2287 44.5929 60.2287C44.3951 60.2287 44.239 60.0726 44.239 59.8228C44.239 59.573 44.3951 59.4273 44.5929 59.4273C44.7906 59.4273 44.9571 59.5834 44.9571 59.8228ZM45.8626 59.7812C45.8626 59.5314 45.9874 59.4586 46.154 59.4586H46.206V59.2712C46.0291 59.2712 45.9146 59.3441 45.8626 59.469V59.292H45.6752V60.364H45.8626V59.7812ZM46.5494 60.0726C46.5494 60.2807 46.6639 60.364 46.8513 60.364H47.0074V60.2079H46.8825C46.768 60.2079 46.7264 60.1767 46.7264 60.0726V59.4377H47.0074V59.292H46.7264V59.0215H46.5494V59.292H46.4141V59.4377H46.5494V60.0726ZM48.2146 60.0726C48.2146 59.6979 47.5902 59.8332 47.5902 59.573C47.5902 59.4898 47.663 59.4273 47.7983 59.4273C47.944 59.4273 48.0273 59.5106 48.0273 59.6147H48.2042C48.1938 59.4065 48.0377 59.2816 47.8087 59.2816C47.5694 59.2816 47.4132 59.4169 47.4132 59.573C47.4132 59.9789 48.0481 59.8332 48.0481 60.0726C48.0481 60.1663 47.9648 60.2287 47.8295 60.2287C47.6734 60.2287 47.5798 60.1558 47.5694 60.0518H47.3924C47.4028 60.2495 47.5798 60.3848 47.8295 60.3848C48.0689 60.3848 48.2146 60.2495 48.2146 60.0726ZM50.192 60.364H50.3689V59.0111H50.192V59.6043H49.5051V59.0111H49.3178V60.364H49.5051V59.75H50.192V60.364ZM51.2327 59.4273C51.42 59.4273 51.5761 59.5418 51.5761 59.75H50.8997C50.9205 59.5418 51.0558 59.4273 51.2327 59.4273ZM51.7323 60.031H51.5449C51.5033 60.1454 51.3992 60.2287 51.2431 60.2287C51.0558 60.2287 50.9101 60.1142 50.8997 59.8957H51.7531C51.7531 59.854 51.7531 59.8228 51.7531 59.7916C51.7531 59.4898 51.5553 59.2712 51.2431 59.2712C50.9309 59.2712 50.7123 59.4898 50.7123 59.8228C50.7123 60.1663 50.9413 60.3848 51.2431 60.3848C51.5033 60.3848 51.6802 60.2287 51.7323 60.031ZM52.4191 59.7812C52.4191 59.5314 52.544 59.4586 52.7105 59.4586H52.7626V59.2712C52.5857 59.2712 52.4712 59.3441 52.4191 59.469V59.292H52.2318V60.364H52.4191V59.7812ZM53.5223 59.4273C53.7096 59.4273 53.8657 59.5418 53.8657 59.75H53.1893C53.2101 59.5418 53.3454 59.4273 53.5223 59.4273ZM54.0219 60.031H53.8345C53.7929 60.1454 53.6888 60.2287 53.5327 60.2287C53.3454 60.2287 53.1997 60.1142 53.1893 59.8957H54.0427C54.0427 59.854 54.0427 59.8228 54.0427 59.7916C54.0427 59.4898 53.8449 59.2712 53.5327 59.2712C53.2205 59.2712 53.0019 59.4898 53.0019 59.8228C53.0019 60.1663 53.2309 60.3848 53.5327 60.3848C53.7929 60.3848 53.9698 60.2287 54.0219 60.031Z" fill="white" style="fill:white;fill-opacity:1;"/>
</g>
</g>
<defs>
<filter id="filter0_f_3138_221" x="0.3" y="15.7219" width="110.4" height="15.4" filterUnits="userSpaceOnUse" color-interpolation-filters="sRGB">
<feFlood flood-opacity="0" result="BackgroundImageFix"/>
<feBlend mode="normal" in="SourceGraphic" in2="BackgroundImageFix" result="shape"/>
<feGaussianBlur stdDeviation="2.85" result="effect1_foregroundBlur_3138_221"/>
</filter>
<filter id="filter1_d_3138_221" x="9.89844" y="5" width="91.0508" height="85.9463" filterUnits="userSpaceOnUse" color-interpolation-filters="sRGB">
<feFlood flood-opacity="0" result="BackgroundImageFix"/>
<feColorMatrix in="SourceAlpha" type="matrix" values="0 0 0 0 0 0 0 0 0 0 0 0 0 0 0 0 0 0 127 0" result="hardAlpha"/>
<feOffset dy="4"/>
<feGaussianBlur stdDeviation="2"/>
<feComposite in2="hardAlpha" operator="out"/>
<feColorMatrix type="matrix" values="0 0 0 0 0 0 0 0 0 0 0 0 0 0 0 0 0 0 0.2 0"/>
<feBlend mode="normal" in2="BackgroundImageFix" result="effect1_dropShadow_3138_221"/>
<feBlend mode="normal" in="SourceGraphic" in2="effect1_dropShadow_3138_221" result="shape"/>
</filter>
<clipPath id="clip0_3138_221">
<rect width="112" height="86" fill="white" style="fill:white;fill-opacity:1;"/>
</clipPath>
</defs>
</svg>
